RobotoExtremo-wdthmax.ufo
<glyph name="dollar" format="2">
  <advance width="1196"/>
  <unicode hex="0024"/>
  <outline>
    <contour>
      <point x="27" y="413" type="line" smooth="yes"/>
      <point x="27" y="232"/>
      <point x="345" y="0"/>
      <point x="609" y="0" type="qcurve" smooth="yes"/>
      <point x="874" y="0"/>
      <point x="1180" y="232"/>
      <point x="1180.0" y="417" type="qcurve" smooth="yes"/>
      <point x="1180.0" y="588.0"/>
      <point x="893" y="778"/>
      <point x="670" y="827" type="qcurve" smooth="yes"/>
      <point x="422" y="881"/>
      <point x="250" y="988"/>
      <point x="250" y="1074" type="qcurve" smooth="yes"/>
      <point x="250" y="1174"/>
      <point x="419" y="1294"/>
      <point x="598" y="1294" type="qcurve" smooth="yes"/>
      <point x="776" y="1294"/>
      <point x="956" y="1154"/>
      <point x="956" y="1049" type="qcurve" smooth="yes"/>
      <point x="956" y="1037" type="line"/>
      <point x="1150" y="1037" type="line"/>
      <point x="1150" y="1049" type="line" smooth="yes"/>
      <point x="1150" y="1210"/>
      <point x="850" y="1456"/>
      <point x="598" y="1456" type="qcurve" smooth="yes"/>
      <point x="338" y="1456"/>
      <point x="60" y="1228"/>
      <point x="60" y="1074" type="qcurve" smooth="yes"/>
      <point x="60" y="909"/>
      <point x="310" y="712"/>
      <point x="558" y="661" type="qcurve" smooth="yes"/>
      <point x="788" y="614"/>
      <point x="988.0" y="473"/>
      <point x="988.0" y="389" type="qcurve" smooth="yes"/>
      <point x="988" y="296"/>
      <point x="790" y="162"/>
      <point x="609" y="162" type="qcurve" smooth="yes"/>
      <point x="424" y="162"/>
      <point x="220" y="292"/>
      <point x="220" y="413" type="qcurve" smooth="yes"/>
      <point x="220" y="425" type="line"/>
      <point x="27" y="425" type="line"/>
    </contour>
    <contour>
      <point x="530" y="-150" type="line"/>
      <point x="688" y="-150" type="line"/>
      <point x="688" y="90" type="line"/>
      <point x="677" y="100" type="line"/>
      <point x="677" y="728" type="line"/>
      <point x="530" y="728" type="line"/>
    </contour>
    <contour>
      <point x="539" y="728" type="line"/>
      <point x="686" y="728" type="line"/>
      <point x="686" y="1606" type="line"/>
      <point x="528" y="1606" type="line"/>
      <point x="528" y="1366" type="line"/>
      <point x="539" y="1356" type="line"/>
    </contour>
  </outline>
</glyph>
<glyph name="ampersand" format="2">
  <advance width="1448"/>
  <unicode hex="0026"/>
  <outline>
    <contour>
      <point x="80" y="380" type="qcurve" smooth="yes"/>
      <point x="80" y="220"/>
      <point x="365" y="-20"/>
      <point x="616" y="-20" type="qcurve" smooth="yes"/>
      <point x="914" y="-20"/>
      <point x="1318" y="380"/>
      <point x="1318" y="674" type="qcurve"/>
      <point x="1136" y="674" type="line"/>
      <point x="1136" y="422"/>
      <point x="829" y="137"/>
      <point x="616" y="137" type="qcurve" smooth="yes"/>
      <point x="461" y="137"/>
      <point x="274" y="272"/>
      <point x="274" y="381" type="qcurve" smooth="yes"/>
      <point x="274" y="481"/>
      <point x="431" y="639"/>
      <point x="615" y="738" type="qcurve" smooth="yes"/>
      <point x="812" y="843" type="line" smooth="yes"/>
      <point x="914" y="898"/>
      <point x="1048" y="1057"/>
      <point x="1048" y="1178" type="qcurve" smooth="yes"/>
      <point x="1048" y="1314"/>
      <point x="822" y="1486"/>
      <point x="648" y="1486" type="qcurve" smooth="yes"/>
      <point x="470" y="1486"/>
      <point x="226" y="1302"/>
      <point x="226" y="1158" type="qcurve" smooth="yes"/>
      <point x="226" y="1058"/>
      <point x="357" y="867"/>
      <point x="480" y="738" type="qcurve" smooth="yes"/>
      <point x="1181" y="0" type="line"/>
      <point x="1424" y="0" type="line"/>
      <point x="629" y="836" type="line" smooth="yes"/>
      <point x="517" y="954"/>
      <point x="418" y="1087"/>
      <point x="418" y="1158" type="qcurve" smooth="yes"/>
      <point x="418" y="1230"/>
      <point x="543" y="1329"/>
      <point x="648" y="1329" type="qcurve" smooth="yes"/>
      <point x="749" y="1329"/>
      <point x="862" y="1240"/>
      <point x="862" y="1168" type="qcurve" smooth="yes"/>
      <point x="862" y="1106"/>
      <point x="789" y="1012"/>
      <point x="694" y="962" type="qcurve" smooth="yes"/>
      <point x="506" y="863" type="line" smooth="yes"/>
      <point x="300" y="756"/>
      <point x="80" y="539"/>
    </contour>
  </outline>
</glyph>
<glyph name="slash" format="2">
  <advance width="688"/>
  <unicode hex="002F"/>
  <outline>
    <contour>
      <point x="-100" y="-125" type="line"/>
      <point x="84" y="-125" type="line"/>
      <point x="788" y="1456" type="line"/>
      <point x="602" y="1456" type="line"/>
    </contour>
  </outline>
</glyph>
<glyph name="A" format="2">
  <advance width="1452"/>
  <unicode hex="0041"/>
  <anchor x="640.0" y="1432.0" name="top"/>
  <outline>
    <contour>
      <point x="0" y="0" type="line"/>
      <point x="624" y="1466" type="line"/>
      <point x="830" y="1466" type="line"/>
      <point x="1452" y="0" type="line"/>
      <point x="1237" y="0" type="line"/>
      <point x="790" y="1094" type="line" smooth="yes"/>
      <point x="770" y="1140"/>
      <point x="740" y="1222"/>
      <point x="728" y="1263" type="qcurve"/>
      <point x="716" y="1263" type="line"/>
      <point x="704" y="1222"/>
      <point x="674" y="1140"/>
      <point x="655" y="1094" type="qcurve" smooth="yes"/>
      <point x="204" y="0" type="line"/>
    </contour>
    <contour>
      <point x="260" y="376" type="line"/>
      <point x="328" y="539" type="line"/>
      <point x="1120" y="539" type="line"/>
      <point x="1188" y="376" type="line"/>
    </contour>
  </outline>
</glyph>
<glyph name="G" format="2">
  <advance width="1524"/>
  <unicode hex="0047"/>
  <outline>
    <contour>
      <point x="115" y="697" type="line" smooth="yes"/>
      <point x="115" y="354"/>
      <point x="509" y="-30"/>
      <point x="840" y="-30" type="qcurve" smooth="yes"/>
      <point x="1056" y="-30"/>
      <point x="1366" y="92"/>
      <point x="1444" y="162" type="qcurve"/>
      <point x="1444" y="731" type="line"/>
      <point x="817" y="731" type="line"/>
      <point x="817" y="568" type="line"/>
      <point x="1248" y="568" type="line"/>
      <point x="1248" y="235" type="line"/>
      <point x="1163" y="183"/>
      <point x="970" y="139"/>
      <point x="840" y="139" type="qcurve" smooth="yes"/>
      <point x="592" y="139"/>
      <point x="319" y="436"/>
      <point x="319" y="697" type="qcurve" smooth="yes"/>
      <point x="319" y="759" type="line" smooth="yes"/>
      <point x="319" y="1020"/>
      <point x="592" y="1317"/>
      <point x="806" y="1317" type="qcurve" smooth="yes"/>
      <point x="1020" y="1317"/>
      <point x="1229" y="1138"/>
      <point x="1240" y="1038" type="qcurve"/>
      <point x="1242" y="1028" type="line"/>
      <point x="1444" y="1028" type="line"/>
      <point x="1442" y="1038" type="line"/>
      <point x="1422" y="1219"/>
      <point x="1102" y="1486"/>
      <point x="806" y="1486" type="qcurve" smooth="yes"/>
      <point x="508" y="1486"/>
      <point x="115" y="1102"/>
      <point x="115" y="759" type="qcurve" smooth="yes"/>
    </contour>
  </outline>
</glyph>
<glyph name="J" format="2">
  <advance width="1234"/>
  <unicode hex="004A"/>
  <outline>
    <contour>
      <point x="25" y="430" type="line" smooth="yes"/>
      <point x="25" y="216"/>
      <point x="318" y="-30"/>
      <point x="552" y="-30" type="qcurve" smooth="yes"/>
      <point x="786" y="-30"/>
      <point x="1079" y="231"/>
      <point x="1079" y="455" type="qcurve" smooth="yes"/>
      <point x="1079" y="1456" type="line"/>
      <point x="878" y="1456" type="line"/>
      <point x="878" y="455" type="line" smooth="yes"/>
      <point x="878" y="303"/>
      <point x="704" y="139"/>
      <point x="552" y="139" type="qcurve" smooth="yes"/>
      <point x="400" y="139"/>
      <point x="226" y="288"/>
      <point x="226" y="430" type="qcurve" smooth="yes"/>
      <point x="226" y="440" type="line"/>
      <point x="25" y="440" type="line"/>
    </contour>
  </outline>
</glyph>
<glyph name="M" format="2">
  <advance width="1986"/>
  <unicode hex="004D"/>
  <outline>
    <contour>
      <point x="170" y="0" type="line"/>
      <point x="358" y="0" type="line"/>
      <point x="358" y="1073" type="line" smooth="yes"/>
      <point x="358" y="1103"/>
      <point x="351" y="1178"/>
      <point x="347" y="1208" type="qcurve"/>
      <point x="358" y="1208" type="line"/>
      <point x="365" y="1178"/>
      <point x="392" y="1103"/>
      <point x="406" y="1073" type="qcurve" smooth="yes"/>
      <point x="897" y="0" type="line"/>
      <point x="1080" y="0" type="line"/>
      <point x="1572" y="1073" type="line" smooth="yes"/>
      <point x="1586" y="1103"/>
      <point x="1613" y="1178"/>
      <point x="1620" y="1208" type="qcurve"/>
      <point x="1630" y="1208" type="line"/>
      <point x="1626" y="1178"/>
      <point x="1620" y="1103"/>
      <point x="1620" y="1073" type="qcurve" smooth="yes"/>
      <point x="1620" y="0" type="line"/>
      <point x="1816" y="0" type="line"/>
      <point x="1816" y="1456" type="line"/>
      <point x="1554" y="1456" type="line"/>
      <point x="1044" y="340" type="line" smooth="yes"/>
      <point x="1030" y="310"/>
      <point x="1006" y="246"/>
      <point x="997" y="216" type="qcurve"/>
      <point x="988" y="216" type="line"/>
      <point x="979" y="246"/>
      <point x="956" y="310"/>
      <point x="942" y="340" type="qcurve" smooth="yes"/>
      <point x="432" y="1456" type="line"/>
      <point x="170" y="1456" type="line"/>
    </contour>
  </outline>
</glyph>
<glyph name="U" format="2">
  <advance width="1515"/>
  <unicode hex="0055"/>
  <anchor x="682" y="1432" name="top"/>
  <outline>
    <contour>
      <point x="155" y="500" type="qcurve" smooth="yes"/>
      <point x="155" y="1456" type="line"/>
      <point x="356" y="1456" type="line"/>
      <point x="356" y="500" type="line" smooth="yes"/>
      <point x="356" y="317"/>
      <point x="578" y="139"/>
      <point x="758" y="139" type="qcurve" smooth="yes"/>
      <point x="936" y="139"/>
      <point x="1158" y="317"/>
      <point x="1158" y="500" type="qcurve" smooth="yes"/>
      <point x="1158" y="1456" type="line"/>
      <point x="1360" y="1456" type="line"/>
      <point x="1360" y="500" type="line" smooth="yes"/>
      <point x="1360" y="235"/>
      <point x="1009" y="-30"/>
      <point x="757" y="-30" type="qcurve" smooth="yes"/>
      <point x="506" y="-30"/>
      <point x="155" y="235"/>
    </contour>
  </outline>
</glyph>
<glyph name="Y" format="2">
  <advance width="1392"/>
  <unicode hex="0059"/>
  <anchor x="615" y="1432" name="top"/>
  <outline>
    <contour>
      <point x="595" y="0" type="line"/>
      <point x="595" y="541" type="line"/>
      <point x="15" y="1456" type="line"/>
      <point x="252" y="1456" type="line"/>
      <point x="633" y="838" type="line" smooth="yes"/>
      <point x="652" y="808"/>
      <point x="684" y="748"/>
      <point x="697" y="718" type="qcurve"/>
      <point x="702" y="718" type="line"/>
      <point x="716" y="748"/>
      <point x="748" y="808"/>
      <point x="766" y="838" type="qcurve" smooth="yes"/>
      <point x="1151" y="1456" type="line"/>
      <point x="1377" y="1456" type="line"/>
      <point x="796" y="541" type="line"/>
      <point x="796" y="0" type="line"/>
    </contour>
  </outline>
</glyph>
<glyph name="underscore" format="2">
  <advance width="1040"/>
  <unicode hex="005F"/>
  <outline>
    <contour>
      <point x="0" y="-270" type="line"/>
      <point x="346" y="-270" type="line"/>
      <point x="346" y="-100" type="line"/>
      <point x="0" y="-100" type="line"/>
    </contour>
    <contour>
      <point x="346" y="-270" type="line"/>
      <point x="693" y="-270" type="line"/>
      <point x="693" y="-100" type="line"/>
      <point x="346" y="-100" type="line"/>
    </contour>
    <contour>
      <point x="693" y="-270" type="line"/>
      <point x="1040" y="-270" type="line"/>
      <point x="1040" y="-100" type="line"/>
      <point x="693" y="-100" type="line"/>
    </contour>
  </outline>
</glyph>
<glyph name="grave" format="2">
  <advance width="1062"/>
  <unicode hex="0060"/>
  <anchor x="512" y="1052" name="_top"/>
  <outline>
    <contour>
      <point x="489" y="1156" type="line"/>
      <point x="682" y="1156" type="line"/>
      <point x="435" y="1456" type="line"/>
      <point x="190" y="1456" type="line"/>
    </contour>
  </outline>
</glyph>
<glyph name="f" format="2">
  <advance width="714"/>
  <unicode hex="0066"/>
  <outline>
    <contour>
      <point x="244" y="0" type="line"/>
      <point x="438" y="0" type="line"/>
      <point x="438" y="968" type="line"/>
      <point x="438" y="990" type="line"/>
      <point x="438" y="1176" type="line" smooth="yes"/>
      <point x="438" y="1286"/>
      <point x="563" y="1396"/>
      <point x="677" y="1396" type="qcurve" smooth="yes"/>
      <point x="708" y="1396"/>
      <point x="767" y="1390"/>
      <point x="793" y="1386" type="qcurve"/>
      <point x="804" y="1540" type="line"/>
      <point x="769" y="1548"/>
      <point x="691" y="1556"/>
      <point x="654" y="1556" type="qcurve" smooth="yes"/>
      <point x="464" y="1556"/>
      <point x="244" y="1361"/>
      <point x="244" y="1176" type="qcurve" smooth="yes"/>
    </contour>
    <contour>
      <point x="25" y="904" type="line"/>
      <point x="724" y="904" type="line"/>
      <point x="724" y="1052" type="line"/>
      <point x="368" y="1052" type="line"/>
      <point x="312" y="1052" type="line"/>
      <point x="25" y="1052" type="line"/>
    </contour>
  </outline>
</glyph>
<glyph name="exclamdown" format="2">
  <advance width="630"/>
  <unicode hex="00A1"/>
  <outline>
    <contour>
      <point x="213" y="-280" type="line"/>
      <point x="417" y="-280" type="line"/>
      <point x="402" y="762" type="line"/>
      <point x="229" y="762" type="line"/>
    </contour>
    <contour>
      <point x="186" y="1076" type="qcurve" smooth="yes"/>
      <point x="186" y="1026"/>
      <point x="253" y="954"/>
      <point x="315" y="954" type="qcurve" smooth="yes"/>
      <point x="378" y="954"/>
      <point x="444" y="1026"/>
      <point x="444" y="1076" type="qcurve" smooth="yes"/>
      <point x="444" y="1126"/>
      <point x="378" y="1198"/>
      <point x="315" y="1198" type="qcurve" smooth="yes"/>
      <point x="252" y="1198"/>
      <point x="186" y="1126"/>
    </contour>
  </outline>
</glyph>
<glyph name="cent" format="2">
  <advance width="1189"/>
  <unicode hex="00A2"/>
  <outline>
    <contour>
      <point x="85" y="520" type="line" smooth="yes"/>
      <point x="85" y="286"/>
      <point x="388" y="-10"/>
      <point x="652" y="-10" type="qcurve" smooth="yes"/>
      <point x="898" y="-10"/>
      <point x="1154" y="218"/>
      <point x="1154" y="358" type="qcurve" smooth="yes"/>
      <point x="1154" y="364" type="line"/>
      <point x="964" y="364" type="line"/>
      <point x="964" y="359" type="line" smooth="yes"/>
      <point x="964" y="274"/>
      <point x="816" y="146"/>
      <point x="652" y="146" type="qcurve" smooth="yes"/>
      <point x="463" y="146"/>
      <point x="284" y="363"/>
      <point x="284" y="520" type="qcurve" smooth="yes"/>
      <point x="284" y="552" type="line" smooth="yes"/>
      <point x="284" y="709"/>
      <point x="463" y="926"/>
      <point x="652" y="926" type="qcurve" smooth="yes"/>
      <point x="816" y="926"/>
      <point x="964" y="797"/>
      <point x="964" y="713" type="qcurve" smooth="yes"/>
      <point x="964" y="708" type="line"/>
      <point x="1154" y="708" type="line"/>
      <point x="1154" y="714" type="line" smooth="yes"/>
      <point x="1154" y="854"/>
      <point x="898" y="1082"/>
      <point x="652" y="1082" type="qcurve" smooth="yes"/>
      <point x="388" y="1082"/>
      <point x="85" y="786"/>
      <point x="85" y="552" type="qcurve" smooth="yes"/>
    </contour>
    <contour>
      <point x="566" y="-256" type="line"/>
      <point x="723" y="-256" type="line"/>
      <point x="723" y="54" type="line"/>
      <point x="717" y="60" type="line"/>
      <point x="717" y="541" type="line"/>
      <point x="573" y="541" type="line"/>
      <point x="573" y="60" type="line"/>
      <point x="566" y="54" type="line"/>
    </contour>
    <contour>
      <point x="573" y="541" type="line"/>
      <point x="717" y="541" type="line"/>
      <point x="717" y="1022" type="line"/>
      <point x="723" y="1028" type="line"/>
      <point x="723" y="1328" type="line"/>
      <point x="566" y="1328" type="line"/>
      <point x="566" y="1028" type="line"/>
      <point x="573" y="1022" type="line"/>
    </contour>
  </outline>
</glyph>
<glyph name="sterling" format="2">
  <advance width="1300"/>
  <unicode hex="00A3"/>
  <outline>
    <contour>
      <point x="102" y="0" type="line"/>
      <point x="1224" y="0" type="line"/>
      <point x="1224" y="161" type="line"/>
      <point x="404" y="161" type="line"/>
      <point x="464" y="200"/>
      <point x="516" y="344"/>
      <point x="516" y="444" type="qcurve" smooth="yes"/>
      <point x="516" y="582"/>
      <point x="422" y="929"/>
      <point x="422" y="1057" type="qcurve" smooth="yes"/>
      <point x="422" y="1186"/>
      <point x="567" y="1309"/>
      <point x="713" y="1309" type="qcurve" smooth="yes"/>
      <point x="860" y="1309"/>
      <point x="1012" y="1186"/>
      <point x="1012" y="1063" type="qcurve" smooth="yes"/>
      <point x="1012" y="1043" type="line"/>
      <point x="1207" y="1043" type="line"/>
      <point x="1207" y="1063" type="line" smooth="yes"/>
      <point x="1207" y="1249"/>
      <point x="942" y="1476"/>
      <point x="714" y="1476" type="qcurve" smooth="yes"/>
      <point x="485" y="1476"/>
      <point x="226" y="1249"/>
      <point x="226" y="1058" type="qcurve" smooth="yes"/>
      <point x="226" y="889"/>
      <point x="328" y="562"/>
      <point x="328" y="404" type="qcurve" smooth="yes"/>
      <point x="328" y="304"/>
      <point x="215" y="165"/>
      <point x="102" y="155" type="qcurve"/>
    </contour>
    <contour>
      <point x="80" y="636" type="line"/>
      <point x="999" y="636" type="line"/>
      <point x="999" y="798" type="line"/>
      <point x="80" y="798" type="line"/>
    </contour>
  </outline>
</glyph>
<glyph name="yen" format="2">
  <advance width="1100"/>
  <unicode hex="00A5"/>
  <outline>
    <contour>
      <point x="-4" y="268" type="line"/>
      <point x="1103" y="268" type="line"/>
      <point x="1103" y="416" type="line"/>
      <point x="-4" y="416" type="line"/>
    </contour>
    <contour>
      <point x="-4" y="580" type="line"/>
      <point x="1103" y="580" type="line"/>
      <point x="1103" y="730" type="line"/>
      <point x="-4" y="730" type="line"/>
    </contour>
    <contour>
      <point x="451" y="0" type="line"/>
      <point x="648" y="0" type="line"/>
      <point x="648" y="574" type="line"/>
      <point x="1144" y="1456" type="line"/>
      <point x="954" y="1456" type="line"/>
      <point x="614" y="864" type="line" smooth="yes"/>
      <point x="596" y="832"/>
      <point x="568" y="774"/>
      <point x="556" y="744" type="qcurve"/>
      <point x="549" y="744" type="line"/>
      <point x="535" y="774"/>
      <point x="508" y="832"/>
      <point x="490" y="864" type="qcurve" smooth="yes"/>
      <point x="162" y="1456" type="line"/>
      <point x="-45" y="1456" type="line"/>
      <point x="451" y="574" type="line"/>
    </contour>
  </outline>
</glyph>
<glyph name="section" format="2">
  <advance width="1389"/>
  <unicode hex="00A7"/>
  <outline>
    <contour>
      <point x="132" y="575" type="qcurve" smooth="yes"/>
      <point x="132" y="418"/>
      <point x="352" y="250"/>
      <point x="613" y="186" type="qcurve" smooth="yes"/>
      <point x="883" y="122"/>
      <point x="1062" y="20"/>
      <point x="1062" y="-70" type="qcurve" smooth="yes"/>
      <point x="1062" y="-170"/>
      <point x="866" y="-291"/>
      <point x="683" y="-291" type="qcurve" smooth="yes"/>
      <point x="498" y="-291"/>
      <point x="294" y="-172"/>
      <point x="294" y="-54" type="qcurve" smooth="yes"/>
      <point x="294" y="-42" type="line"/>
      <point x="100" y="-42" type="line"/>
      <point x="100" y="-54" type="line" smooth="yes"/>
      <point x="100" y="-235"/>
      <point x="418" y="-446"/>
      <point x="683" y="-446" type="qcurve" smooth="yes"/>
      <point x="946" y="-446"/>
      <point x="1254" y="-235"/>
      <point x="1254" y="-70" type="qcurve" smooth="yes"/>
      <point x="1254" y="94"/>
      <point x="1020" y="274"/>
      <point x="762" y="336" type="qcurve" smooth="yes"/>
      <point x="496" y="400"/>
      <point x="324" y="494"/>
      <point x="324" y="576" type="qcurve" smooth="yes"/>
      <point x="324" y="675"/>
      <point x="493" y="784"/>
      <point x="672" y="784" type="qcurve"/>
      <point x="448" y="900" type="line"/>
      <point x="297" y="860"/>
      <point x="132" y="692"/>
    </contour>
    <contour>
      <point x="168" y="1123" type="qcurve" smooth="yes"/>
      <point x="168" y="967"/>
      <point x="386" y="798"/>
      <point x="648" y="734" type="qcurve" smooth="yes"/>
      <point x="918" y="670"/>
      <point x="1097" y="567"/>
      <point x="1097" y="477" type="qcurve" smooth="yes"/>
      <point x="1097" y="377"/>
      <point x="901" y="256"/>
      <point x="718" y="256" type="qcurve"/>
      <point x="1010" y="150" type="line"/>
      <point x="1138" y="196"/>
      <point x="1289" y="366"/>
      <point x="1289" y="478" type="qcurve" smooth="yes"/>
      <point x="1289" y="642"/>
      <point x="1054" y="823"/>
      <point x="798" y="884" type="qcurve" smooth="yes"/>
      <point x="532" y="948"/>
      <point x="360" y="1042"/>
      <point x="360" y="1123" type="qcurve" smooth="yes"/>
      <point x="360" y="1222"/>
      <point x="528" y="1331"/>
      <point x="706" y="1331" type="qcurve" smooth="yes"/>
      <point x="884" y="1331"/>
      <point x="1064" y="1204"/>
      <point x="1064" y="1099" type="qcurve" smooth="yes"/>
      <point x="1064" y="1088" type="line"/>
      <point x="1258" y="1088" type="line"/>
      <point x="1258" y="1099" type="line" smooth="yes"/>
      <point x="1258" y="1261"/>
      <point x="960" y="1486"/>
      <point x="706" y="1486" type="qcurve" smooth="yes"/>
      <point x="453" y="1486"/>
      <point x="168" y="1279"/>
    </contour>
  </outline>
</glyph>
<glyph name="dieresis" format="2">
  <advance width="1078"/>
  <unicode hex="00A8"/>
  <anchor x="512.0" y="1052.0" name="_top"/>
  <outline>
    <contour>
      <point x="178" y="1258" type="qcurve" smooth="yes"/>
      <point x="178" y="1210"/>
      <point x="238" y="1144"/>
      <point x="292" y="1144" type="qcurve" smooth="yes"/>
      <point x="346" y="1144"/>
      <point x="406" y="1210"/>
      <point x="406" y="1258" type="qcurve" smooth="yes"/>
      <point x="406" y="1306"/>
      <point x="346" y="1372"/>
      <point x="292" y="1372" type="qcurve" smooth="yes"/>
      <point x="238" y="1372"/>
      <point x="178" y="1306"/>
    </contour>
    <contour>
      <point x="672" y="1258" type="qcurve" smooth="yes"/>
      <point x="672" y="1210"/>
      <point x="732" y="1144"/>
      <point x="786" y="1144" type="qcurve" smooth="yes"/>
      <point x="840" y="1144"/>
      <point x="900" y="1210"/>
      <point x="900" y="1258" type="qcurve" smooth="yes"/>
      <point x="900" y="1306"/>
      <point x="840" y="1372"/>
      <point x="786" y="1372" type="qcurve" smooth="yes"/>
      <point x="732" y="1372"/>
      <point x="672" y="1306"/>
    </contour>
  </outline>
</glyph>
<glyph name="copyright" format="2">
  <advance width="1944"/>
  <unicode hex="00A9"/>
  <outline>
    <contour>
      <point x="94" y="698" type="qcurve" smooth="yes"/>
      <point x="94" y="364"/>
      <point x="615" y="-82"/>
      <point x="972" y="-82" type="qcurve" smooth="yes"/>
      <point x="1329" y="-82"/>
      <point x="1850" y="364"/>
      <point x="1850" y="698" type="qcurve" smooth="yes"/>
      <point x="1850" y="1032"/>
      <point x="1329" y="1478"/>
      <point x="972" y="1478" type="qcurve" smooth="yes"/>
      <point x="615" y="1478"/>
      <point x="94" y="1032"/>
    </contour>
    <contour>
      <point x="252" y="698" type="qcurve" smooth="yes"/>
      <point x="252" y="961"/>
      <point x="665" y="1330"/>
      <point x="972" y="1330" type="qcurve" smooth="yes"/>
      <point x="1280" y="1330"/>
      <point x="1692" y="961"/>
      <point x="1692" y="698" type="qcurve" smooth="yes"/>
      <point x="1692" y="435"/>
      <point x="1280" y="66"/>
      <point x="972" y="66" type="qcurve" smooth="yes"/>
      <point x="664" y="66"/>
      <point x="252" y="435"/>
    </contour>
    <contour>
      <point x="516" y="668" type="line" smooth="yes"/>
      <point x="516" y="488"/>
      <point x="778" y="264"/>
      <point x="973" y="264" type="qcurve" smooth="yes"/>
      <point x="1158" y="264"/>
      <point x="1398" y="441"/>
      <point x="1398" y="571" type="qcurve" smooth="yes"/>
      <point x="1398" y="581" type="line"/>
      <point x="1237" y="581" type="line"/>
      <point x="1237" y="571" type="line" smooth="yes"/>
      <point x="1237" y="492"/>
      <point x="1097" y="406"/>
      <point x="973" y="406" type="qcurve" smooth="yes"/>
      <point x="838" y="406"/>
      <point x="686" y="549"/>
      <point x="686" y="668" type="qcurve" smooth="yes"/>
      <point x="686" y="748" type="line" smooth="yes"/>
      <point x="686" y="867"/>
      <point x="838" y="1010"/>
      <point x="973" y="1010" type="qcurve" smooth="yes"/>
      <point x="1097" y="1010"/>
      <point x="1237" y="924"/>
      <point x="1237" y="845" type="qcurve" smooth="yes"/>
      <point x="1237" y="835" type="line"/>
      <point x="1398" y="835" type="line"/>
      <point x="1398" y="845" type="line" smooth="yes"/>
      <point x="1398" y="976"/>
      <point x="1158" y="1152"/>
      <point x="973" y="1152" type="qcurve" smooth="yes"/>
      <point x="778" y="1152"/>
      <point x="516" y="928"/>
      <point x="516" y="748" type="qcurve" smooth="yes"/>
    </contour>
  </outline>
</glyph>
<glyph name="logicalnot" format="2">
  <advance width="1284"/>
  <unicode hex="00AC"/>
  <outline>
    <contour>
      <point x="128" y="625" type="line"/>
      <point x="970" y="625" type="line"/>
      <point x="970" y="374" type="line"/>
      <point x="1156" y="374" type="line"/>
      <point x="1156" y="802" type="line"/>
      <point x="128" y="802" type="line"/>
    </contour>
  </outline>
</glyph>
<glyph name="macron" format="2">
  <advance width="1102"/>
  <unicode hex="00AF"/>
  <anchor x="512" y="1052" name="_top"/>
  <outline>
    <contour>
      <point x="197" y="1176" type="line"/>
      <point x="905" y="1176" type="line"/>
      <point x="905" y="1333" type="line"/>
      <point x="197" y="1333" type="line"/>
    </contour>
  </outline>
</glyph>
<glyph name="degree" format="2">
  <advance width="892"/>
  <unicode hex="00B0"/>
  <outline>
    <contour>
      <point x="120" y="1154" type="qcurve" smooth="yes"/>
      <point x="120" y="1014"/>
      <point x="311" y="830"/>
      <point x="446" y="830" type="qcurve" smooth="yes"/>
      <point x="582" y="830"/>
      <point x="772" y="1014"/>
      <point x="772" y="1153" type="qcurve" smooth="yes"/>
      <point x="772" y="1292"/>
      <point x="581" y="1476"/>
      <point x="446" y="1476" type="qcurve" smooth="yes"/>
      <point x="310" y="1476"/>
      <point x="120" y="1293"/>
    </contour>
    <contour>
      <point x="276" y="1153" type="qcurve" smooth="yes"/>
      <point x="276" y="1231"/>
      <point x="372" y="1332"/>
      <point x="446" y="1332" type="qcurve" smooth="yes"/>
      <point x="520" y="1332"/>
      <point x="616" y="1231"/>
      <point x="616" y="1153" type="qcurve" smooth="yes"/>
      <point x="616" y="1076"/>
      <point x="520" y="974"/>
      <point x="446" y="974" type="qcurve" smooth="yes"/>
      <point x="372" y="974"/>
      <point x="276" y="1076"/>
    </contour>
  </outline>
</glyph>
<glyph name="periodcentered" format="2">
  <advance width="591"/>
  <unicode hex="00B7"/>
  <outline>
    <contour>
      <point x="160" y="730" type="qcurve" smooth="yes"/>
      <point x="160" y="676"/>
      <point x="230" y="602"/>
      <point x="295" y="602" type="qcurve" smooth="yes"/>
      <point x="361" y="602"/>
      <point x="431" y="677"/>
      <point x="431" y="730" type="qcurve" smooth="yes"/>
      <point x="431" y="784"/>
      <point x="361" y="858"/>
      <point x="296" y="858" type="qcurve" smooth="yes"/>
      <point x="230" y="858"/>
      <point x="160" y="783"/>
    </contour>
  </outline>
</glyph>
<glyph name="cedilla" format="2">
  <advance width="1024"/>
  <unicode hex="00B8"/>
  <anchor x="512" y="0" name="_bottom"/>
  <outline>
    <contour>
      <point x="453" y="0" type="line"/>
      <point x="393" y="-215" type="line"/>
      <point x="524" y="-215"/>
      <point x="635" y="-260"/>
      <point x="635" y="-300" type="qcurve" smooth="yes"/>
      <point x="635" y="-350"/>
      <point x="466" y="-408"/>
      <point x="276" y="-408" type="qcurve"/>
      <point x="284" y="-538" type="line"/>
      <point x="582" y="-538"/>
      <point x="805" y="-401"/>
      <point x="805" y="-300" type="qcurve" smooth="yes"/>
      <point x="805" y="-215"/>
      <point x="672" y="-123"/>
      <point x="558" y="-110" type="qcurve"/>
      <point x="597" y="0" type="line"/>
    </contour>
  </outline>
</glyph>
<glyph name="guillemetright" format="2">
  <advance width="1247"/>
  <unicode hex="00BB"/>
  <outline>
    <contour>
      <point x="257" y="202" type="line"/>
      <point x="648" y="592" type="line"/>
      <point x="648" y="612" type="line"/>
      <point x="257" y="1002" type="line"/>
      <point x="66" y="1002" type="line"/>
      <point x="407" y="602" type="line"/>
      <point x="66" y="202" type="line"/>
    </contour>
    <contour>
      <point x="785" y="202" type="line"/>
      <point x="1175" y="592" type="line"/>
      <point x="1175" y="612" type="line"/>
      <point x="785" y="1002" type="line"/>
      <point x="594" y="1002" type="line"/>
      <point x="934" y="602" type="line"/>
      <point x="594" y="202" type="line"/>
    </contour>
  </outline>
</glyph>
<glyph name="questiondown" format="2">
  <advance width="989"/>
  <unicode hex="00BF"/>
  <outline>
    <contour>
      <point x="40" y="78" type="qcurve" smooth="yes"/>
      <point x="40" y="-86"/>
      <point x="286" y="-300"/>
      <point x="506" y="-300" type="qcurve" smooth="yes"/>
      <point x="724" y="-300"/>
      <point x="977" y="-96"/>
      <point x="977" y="64" type="qcurve" smooth="yes"/>
      <point x="977" y="84" type="line"/>
      <point x="782" y="84" type="line"/>
      <point x="782" y="64" type="line" smooth="yes"/>
      <point x="782" y="-26"/>
      <point x="640" y="-134"/>
      <point x="506" y="-134" type="qcurve" smooth="yes"/>
      <point x="370" y="-134"/>
      <point x="237" y="-16"/>
      <point x="237" y="78" type="qcurve" smooth="yes"/>
      <point x="237" y="177"/>
      <point x="358" y="312"/>
      <point x="454" y="394" type="qcurve" smooth="yes"/>
      <point x="559" y="480"/>
      <point x="642" y="628"/>
      <point x="642" y="754" type="qcurve" smooth="yes"/>
      <point x="642" y="764" type="line"/>
      <point x="446" y="764" type="line"/>
      <point x="446" y="754" type="line" smooth="yes"/>
      <point x="446" y="682"/>
      <point x="388" y="563"/>
      <point x="284" y="480" type="qcurve" smooth="yes"/>
      <point x="201" y="416"/>
      <point x="40" y="209"/>
    </contour>
    <contour>
      <point x="406" y="1076" type="qcurve" smooth="yes"/>
      <point x="406" y="1026"/>
      <point x="473" y="954"/>
      <point x="535" y="954" type="qcurve" smooth="yes"/>
      <point x="598" y="954"/>
      <point x="664" y="1026"/>
      <point x="664" y="1076" type="qcurve" smooth="yes"/>
      <point x="664" y="1126"/>
      <point x="598" y="1198"/>
      <point x="535" y="1198" type="qcurve" smooth="yes"/>
      <point x="472" y="1198"/>
      <point x="406" y="1126"/>
    </contour>
  </outline>
</glyph>
<glyph name="AE" format="2">
  <advance width="2022"/>
  <unicode hex="00C6"/>
  <outline>
    <contour>
      <point x="-60" y="0" type="line"/>
      <point x="159" y="0" type="line"/>
      <point x="1002" y="1319" type="line"/>
      <point x="1012" y="1319" type="line"/>
      <point x="1012" y="0" type="line"/>
      <point x="1954" y="0" type="line"/>
      <point x="1954" y="163" type="line"/>
      <point x="1216" y="163" type="line"/>
      <point x="1216" y="670" type="line"/>
      <point x="1840" y="670" type="line"/>
      <point x="1840" y="832" type="line"/>
      <point x="1216" y="832" type="line"/>
      <point x="1216" y="1293" type="line"/>
      <point x="1944" y="1293" type="line"/>
      <point x="1944" y="1456" type="line"/>
      <point x="884" y="1456" type="line"/>
    </contour>
    <contour>
      <point x="294" y="377" type="line"/>
      <point x="1120" y="377" type="line"/>
      <point x="1120" y="540" type="line"/>
      <point x="398" y="540" type="line"/>
    </contour>
  </outline>
</glyph>
<glyph name="Oslash" format="2">
  <advance width="1652"/>
  <unicode hex="00D8"/>
  <outline>
    <contour>
      <point x="114" y="-80" type="line"/>
      <point x="330" y="-80" type="line"/>
      <point x="500" y="150" type="line"/>
      <point x="490" y="150" type="line"/>
      <point x="921" y="726" type="line"/>
      <point x="732" y="726" type="line"/>
      <point x="374" y="250" type="line"/>
      <point x="364" y="250" type="line"/>
    </contour>
    <contour>
      <point x="732" y="726" type="line"/>
      <point x="921" y="726" type="line"/>
      <point x="1278" y="1202" type="line"/>
      <point x="1288" y="1202" type="line"/>
      <point x="1539" y="1532" type="line"/>
      <point x="1324" y="1532" type="line"/>
      <point x="1154" y="1302" type="line"/>
      <point x="1164" y="1302" type="line"/>
    </contour>
    <contour>
      <point x="124" y="682" type="line" smooth="yes"/>
      <point x="124" y="346"/>
      <point x="518" y="-30"/>
      <point x="826" y="-30" type="qcurve" smooth="yes"/>
      <point x="1134" y="-30"/>
      <point x="1528" y="346"/>
      <point x="1528" y="682" type="qcurve" smooth="yes"/>
      <point x="1528" y="774" type="line" smooth="yes"/>
      <point x="1528" y="1110"/>
      <point x="1134" y="1486"/>
      <point x="826" y="1486" type="qcurve" smooth="yes"/>
      <point x="518" y="1486"/>
      <point x="124" y="1110"/>
      <point x="124" y="774" type="qcurve" smooth="yes"/>
    </contour>
    <contour>
      <point x="328" y="682" type="qcurve" smooth="yes"/>
      <point x="328" y="774" type="line" smooth="yes"/>
      <point x="328" y="1028"/>
      <point x="603" y="1317"/>
      <point x="826" y="1317" type="qcurve" smooth="yes"/>
      <point x="1050" y="1317"/>
      <point x="1324" y="1028"/>
      <point x="1324" y="774" type="qcurve" smooth="yes"/>
      <point x="1324" y="682" type="line" smooth="yes"/>
      <point x="1324" y="428"/>
      <point x="1049" y="139"/>
      <point x="826" y="139" type="qcurve" smooth="yes"/>
      <point x="603" y="139"/>
      <point x="328" y="428"/>
    </contour>
  </outline>
</glyph>
<glyph name="Thorn" format="2">
  <advance width="1392"/>
  <unicode hex="00DE"/>
  <outline>
    <contour>
      <point x="170" y="0" type="line"/>
      <point x="372" y="0" type="line"/>
      <point x="372" y="288" type="line"/>
      <point x="742" y="288" type="line" smooth="yes"/>
      <point x="1007" y="288"/>
      <point x="1292" y="534"/>
      <point x="1292" y="735" type="qcurve" smooth="yes"/>
      <point x="1292" y="936"/>
      <point x="1007" y="1178"/>
      <point x="742" y="1178" type="qcurve" smooth="yes"/>
      <point x="372" y="1178" type="line"/>
      <point x="372" y="1456" type="line"/>
      <point x="170" y="1456" type="line"/>
    </contour>
    <contour>
      <point x="372" y="451" type="line"/>
      <point x="372" y="1016" type="line"/>
      <point x="742" y="1016" type="line" smooth="yes"/>
      <point x="935" y="1016"/>
      <point x="1090" y="854"/>
      <point x="1090" y="735" type="qcurve" smooth="yes"/>
      <point x="1090" y="616"/>
      <point x="935" y="451"/>
      <point x="742" y="451" type="qcurve" smooth="yes"/>
    </contour>
  </outline>
</glyph>
<glyph name="eth" format="2">
  <advance width="1271"/>
  <unicode hex="00F0"/>
  <outline>
    <contour>
      <point x="80" y="474" type="qcurve" smooth="yes"/>
      <point x="80" y="249"/>
      <point x="385" y="-30"/>
      <point x="614" y="-30" type="qcurve" smooth="yes"/>
      <point x="843" y="-30"/>
      <point x="1151" y="324"/>
      <point x="1151" y="724" type="qcurve" smooth="yes"/>
      <point x="1151" y="804" type="line" smooth="yes"/>
      <point x="1151" y="1204"/>
      <point x="889" y="1556"/>
      <point x="592" y="1556" type="qcurve" smooth="yes"/>
      <point x="443" y="1556"/>
      <point x="208" y="1450"/>
      <point x="140" y="1370" type="qcurve"/>
      <point x="252" y="1245" type="line"/>
      <point x="309" y="1306"/>
      <point x="477" y="1393"/>
      <point x="592" y="1393" type="qcurve" smooth="yes"/>
      <point x="784" y="1393"/>
      <point x="956" y="1151"/>
      <point x="956" y="814" type="qcurve" smooth="yes"/>
      <point x="956" y="714" type="line" smooth="yes"/>
      <point x="956" y="377"/>
      <point x="770" y="133"/>
      <point x="614" y="133" type="qcurve" smooth="yes"/>
      <point x="456" y="133"/>
      <point x="280" y="311"/>
      <point x="280" y="474" type="qcurve" smooth="yes"/>
      <point x="280" y="636"/>
      <point x="456" y="813"/>
      <point x="614" y="813" type="qcurve" smooth="yes"/>
      <point x="750" y="813"/>
      <point x="960" y="637"/>
      <point x="960" y="474" type="qcurve"/>
      <point x="1047" y="474" type="line"/>
      <point x="1047" y="699"/>
      <point x="786" y="976"/>
      <point x="569" y="976" type="qcurve" smooth="yes"/>
      <point x="351" y="976"/>
      <point x="80" y="699"/>
    </contour>
    <contour>
      <point x="504" y="1190" type="line"/>
      <point x="586" y="1067" type="line"/>
      <point x="1190" y="1427" type="line"/>
      <point x="1108" y="1550" type="line"/>
    </contour>
  </outline>
</glyph>
<glyph name="divide" format="2">
  <advance width="1170"/>
  <unicode hex="00F7"/>
  <outline>
    <contour>
      <point x="26" y="590" type="line"/>
      <point x="1144" y="590" type="line"/>
      <point x="1144" y="758" type="line"/>
      <point x="26" y="758" type="line"/>
    </contour>
    <contour>
      <point x="456" y="289" type="qcurve" smooth="yes"/>
      <point x="456" y="239"/>
      <point x="523" y="167"/>
      <point x="585" y="167" type="qcurve" smooth="yes"/>
      <point x="648" y="167"/>
      <point x="714" y="239"/>
      <point x="714" y="290" type="qcurve" smooth="yes"/>
      <point x="714" y="340"/>
      <point x="647" y="412"/>
      <point x="585" y="412" type="qcurve" smooth="yes"/>
      <point x="522" y="412"/>
      <point x="456" y="340"/>
    </contour>
    <contour>
      <point x="456" y="1058" type="qcurve" smooth="yes"/>
      <point x="456" y="1008"/>
      <point x="523" y="936"/>
      <point x="585" y="936" type="qcurve" smooth="yes"/>
      <point x="648" y="936"/>
      <point x="714" y="1008"/>
      <point x="714" y="1059" type="qcurve" smooth="yes"/>
      <point x="714" y="1109"/>
      <point x="647" y="1181"/>
      <point x="585" y="1181" type="qcurve" smooth="yes"/>
      <point x="522" y="1181"/>
      <point x="456" y="1109"/>
    </contour>
  </outline>
</glyph>
<glyph name="oe" format="2">
  <advance width="2021"/>
  <unicode hex="0153"/>
  <outline>
    <contour>
      <point x="85" y="510" type="line" smooth="yes"/>
      <point x="85" y="272"/>
      <point x="385" y="-30"/>
      <point x="634" y="-30" type="qcurve" smooth="yes"/>
      <point x="780" y="-30"/>
      <point x="1003" y="88"/>
      <point x="1073" y="189" type="qcurve"/>
      <point x="1138" y="90"/>
      <point x="1358" y="-30"/>
      <point x="1510" y="-30" type="qcurve" smooth="yes"/>
      <point x="1672" y="-30"/>
      <point x="1899" y="102"/>
      <point x="1954" y="175" type="qcurve"/>
      <point x="1828" y="277" type="line"/>
      <point x="1778" y="218"/>
      <point x="1621" y="126"/>
      <point x="1510" y="126" type="qcurve" smooth="yes"/>
      <point x="1333" y="126"/>
      <point x="1166" y="349"/>
      <point x="1166" y="510" type="qcurve" smooth="yes"/>
      <point x="1166" y="542" type="line" smooth="yes"/>
      <point x="1166" y="703"/>
      <point x="1324" y="926"/>
      <point x="1476" y="926" type="qcurve" smooth="yes"/>
      <point x="1632" y="926"/>
      <point x="1764" y="759"/>
      <point x="1764" y="634" type="qcurve"/>
      <point x="1764" y="634" type="line"/>
      <point x="1086" y="634" type="line"/>
      <point x="1086" y="481" type="line"/>
      <point x="1965" y="481" type="line"/>
      <point x="1965" y="560" type="line" smooth="yes"/>
      <point x="1965" y="800"/>
      <point x="1711" y="1082"/>
      <point x="1477" y="1082" type="qcurve" smooth="yes"/>
      <point x="1344" y="1082"/>
      <point x="1139" y="962"/>
      <point x="1074" y="863" type="qcurve"/>
      <point x="1004" y="964"/>
      <point x="780" y="1082"/>
      <point x="634" y="1082" type="qcurve" smooth="yes"/>
      <point x="385" y="1082"/>
      <point x="85" y="780"/>
      <point x="85" y="542" type="qcurve" smooth="yes"/>
    </contour>
    <contour>
      <point x="284" y="510" type="qcurve" smooth="yes"/>
      <point x="284" y="542" type="line" smooth="yes"/>
      <point x="284" y="702"/>
      <point x="461" y="924"/>
      <point x="635" y="924" type="qcurve" smooth="yes"/>
      <point x="808" y="924"/>
      <point x="985" y="702"/>
      <point x="985" y="542" type="qcurve" smooth="yes"/>
      <point x="985" y="510" type="line" smooth="yes"/>
      <point x="985" y="350"/>
      <point x="809" y="128"/>
      <point x="635" y="128" type="qcurve" smooth="yes"/>
      <point x="460" y="128"/>
      <point x="284" y="350"/>
    </contour>
  </outline>
</glyph>
<glyph name="ring" format="2">
  <advance width="1084"/>
  <unicode hex="02DA"/>
  <anchor x="512" y="1052" name="_top"/>
  <outline>
    <contour>
      <point x="266" y="1362" type="qcurve" smooth="yes"/>
      <point x="266" y="1262"/>
      <point x="427" y="1130"/>
      <point x="542" y="1130" type="qcurve" smooth="yes"/>
      <point x="657" y="1130"/>
      <point x="818" y="1261"/>
      <point x="818" y="1361" type="qcurve" smooth="yes"/>
      <point x="818" y="1462"/>
      <point x="657" y="1593"/>
      <point x="542" y="1593" type="qcurve" smooth="yes"/>
      <point x="427" y="1593"/>
      <point x="266" y="1462"/>
    </contour>
    <contour>
      <point x="396" y="1362" type="qcurve" smooth="yes"/>
      <point x="396" y="1412"/>
      <point x="479" y="1478"/>
      <point x="542" y="1478" type="qcurve" smooth="yes"/>
      <point x="605" y="1478"/>
      <point x="688" y="1412"/>
      <point x="688" y="1362" type="qcurve" smooth="yes"/>
      <point x="688" y="1311"/>
      <point x="605" y="1245"/>
      <point x="542" y="1245" type="qcurve" smooth="yes"/>
      <point x="479" y="1245"/>
      <point x="396" y="1311"/>
    </contour>
  </outline>
</glyph>
<glyph name="Germandbls" format="2">
  <advance width="1504"/>
  <unicode hex="1E9E"/>
  <outline>
    <contour>
      <point x="170" y="0" type="line"/>
      <point x="372" y="0" type="line"/>
      <point x="372" y="1036" type="line" smooth="yes"/>
      <point x="372" y="1175"/>
      <point x="562" y="1317"/>
      <point x="742" y="1317" type="qcurve" smooth="yes"/>
      <point x="912" y="1317"/>
      <point x="1071" y="1208"/>
      <point x="1082" y="1110" type="qcurve"/>
      <point x="722" y="840" type="line"/>
      <point x="774" y="688" type="line"/>
      <point x="1002" y="658"/>
      <point x="1192" y="530"/>
      <point x="1192" y="432" type="qcurve" smooth="yes"/>
      <point x="1192" y="392" type="line" smooth="yes"/>
      <point x="1192" y="273"/>
      <point x="967" y="143"/>
      <point x="787" y="143" type="qcurve" smooth="yes"/>
      <point x="742" y="143"/>
      <point x="636" y="153"/>
      <point x="607" y="158" type="qcurve"/>
      <point x="578" y="-4" type="line"/>
      <point x="618" y="-10"/>
      <point x="742" y="-20"/>
      <point x="798" y="-20" type="qcurve" smooth="yes"/>
      <point x="1073" y="-20"/>
      <point x="1396" y="210"/>
      <point x="1396" y="391" type="qcurve" smooth="yes"/>
      <point x="1396" y="432" type="line" smooth="yes"/>
      <point x="1396" y="581"/>
      <point x="1146" y="780"/>
      <point x="950" y="810" type="qcurve"/>
      <point x="950" y="820" type="line"/>
      <point x="1286" y="1050" type="line"/>
      <point x="1286" y="1070" type="line" smooth="yes"/>
      <point x="1286" y="1250"/>
      <point x="994" y="1486"/>
      <point x="742" y="1486" type="qcurve" smooth="yes"/>
      <point x="490" y="1486"/>
      <point x="170" y="1258"/>
      <point x="170" y="1036" type="qcurve" smooth="yes"/>
    </contour>
  </outline>
</glyph>
<glyph name="quotesinglbase" format="2">
  <advance width="446"/>
  <unicode hex="201A"/>
  <outline>
    <contour>
      <point x="38" y="-191" type="qcurve"/>
      <point x="148" y="-266" type="line"/>
      <point x="228" y="-198"/>
      <point x="326" y="-12"/>
      <point x="326" y="100" type="qcurve" smooth="yes"/>
      <point x="326" y="225" type="line"/>
      <point x="140" y="225" type="line"/>
      <point x="140" y="100" type="line" smooth="yes"/>
      <point x="140" y="10"/>
      <point x="88" y="-126"/>
    </contour>
  </outline>
</glyph>
<glyph name="quotedblright" format="2">
  <advance width="833"/>
  <unicode hex="201D"/>
  <outline>
    <contour>
      <point x="38" y="1040" type="qcurve"/>
      <point x="148" y="964" type="line"/>
      <point x="228" y="1032"/>
      <point x="326" y="1220"/>
      <point x="326" y="1332" type="qcurve" smooth="yes"/>
      <point x="326" y="1456" type="line"/>
      <point x="140" y="1456" type="line"/>
      <point x="140" y="1332" type="line" smooth="yes"/>
      <point x="140" y="1240"/>
      <point x="88" y="1105"/>
    </contour>
    <contour>
      <point x="425" y="1040" type="qcurve"/>
      <point x="534" y="964" type="line"/>
      <point x="615" y="1032"/>
      <point x="713" y="1220"/>
      <point x="713" y="1332" type="qcurve" smooth="yes"/>
      <point x="713" y="1456" type="line"/>
      <point x="526" y="1456" type="line"/>
      <point x="526" y="1332" type="line" smooth="yes"/>
      <point x="526" y="1240"/>
      <point x="474" y="1105"/>
    </contour>
  </outline>
</glyph>
<glyph name="perthousand" format="2">
  <advance width="2696"/>
  <unicode hex="2030"/>
  <outline>
    <contour>
      <point x="70" y="1016" type="line" smooth="yes"/>
      <point x="70" y="856"/>
      <point x="253" y="660"/>
      <point x="425" y="660" type="qcurve" smooth="yes"/>
      <point x="597" y="660"/>
      <point x="780" y="856"/>
      <point x="780" y="1016" type="qcurve" smooth="yes"/>
      <point x="780" y="1120" type="line" smooth="yes"/>
      <point x="780" y="1280"/>
      <point x="597" y="1476"/>
      <point x="425" y="1476" type="qcurve" smooth="yes"/>
      <point x="253" y="1476"/>
      <point x="70" y="1280"/>
      <point x="70" y="1120" type="qcurve" smooth="yes"/>
    </contour>
    <contour>
      <point x="246" y="1016" type="qcurve" smooth="yes"/>
      <point x="246" y="1120" type="line" smooth="yes"/>
      <point x="246" y="1209"/>
      <point x="324" y="1324"/>
      <point x="425" y="1324" type="qcurve" smooth="yes"/>
      <point x="526" y="1324"/>
      <point x="604" y="1209"/>
      <point x="604" y="1120" type="qcurve" smooth="yes"/>
      <point x="604" y="1016" type="line" smooth="yes"/>
      <point x="604" y="927"/>
      <point x="526" y="812"/>
      <point x="425" y="812" type="qcurve" smooth="yes"/>
      <point x="324" y="812"/>
      <point x="246" y="927"/>
    </contour>
    <contour>
      <point x="360" y="60" type="line"/>
      <point x="498" y="-30" type="line"/>
      <point x="1478" y="1389" type="line"/>
      <point x="1344" y="1486" type="line"/>
    </contour>
    <contour>
      <point x="1062" y="336" type="line" smooth="yes"/>
      <point x="1062" y="176"/>
      <point x="1245" y="-20"/>
      <point x="1417" y="-20" type="qcurve" smooth="yes"/>
      <point x="1589" y="-20"/>
      <point x="1772" y="176"/>
      <point x="1772" y="336" type="qcurve" smooth="yes"/>
      <point x="1772" y="440" type="line" smooth="yes"/>
      <point x="1772" y="600"/>
      <point x="1589" y="796"/>
      <point x="1417" y="796" type="qcurve" smooth="yes"/>
      <point x="1245" y="796"/>
      <point x="1062" y="600"/>
      <point x="1062" y="440" type="qcurve" smooth="yes"/>
    </contour>
    <contour>
      <point x="1238" y="336" type="qcurve" smooth="yes"/>
      <point x="1238" y="440" type="line" smooth="yes"/>
      <point x="1238" y="528"/>
      <point x="1316" y="643"/>
      <point x="1417" y="643" type="qcurve" smooth="yes"/>
      <point x="1518" y="643"/>
      <point x="1596" y="528"/>
      <point x="1596" y="440" type="qcurve" smooth="yes"/>
      <point x="1596" y="336" type="line" smooth="yes"/>
      <point x="1596" y="247"/>
      <point x="1518" y="132"/>
      <point x="1417" y="132" type="qcurve" smooth="yes"/>
      <point x="1316" y="132"/>
      <point x="1238" y="247"/>
    </contour>
    <contour>
      <point x="1906" y="336" type="line" smooth="yes"/>
      <point x="1906" y="176"/>
      <point x="2090" y="-20"/>
      <point x="2262" y="-20" type="qcurve" smooth="yes"/>
      <point x="2434" y="-20"/>
      <point x="2616" y="176"/>
      <point x="2616" y="336" type="qcurve" smooth="yes"/>
      <point x="2616" y="440" type="line" smooth="yes"/>
      <point x="2616" y="600"/>
      <point x="2434" y="796"/>
      <point x="2262" y="796" type="qcurve" smooth="yes"/>
      <point x="2090" y="796"/>
      <point x="1906" y="600"/>
      <point x="1906" y="440" type="qcurve" smooth="yes"/>
    </contour>
    <contour>
      <point x="2082" y="336" type="qcurve" smooth="yes"/>
      <point x="2082" y="440" type="line" smooth="yes"/>
      <point x="2082" y="528"/>
      <point x="2160" y="643"/>
      <point x="2262" y="643" type="qcurve" smooth="yes"/>
      <point x="2362" y="643"/>
      <point x="2440" y="528"/>
      <point x="2440" y="440" type="qcurve" smooth="yes"/>
      <point x="2440" y="336" type="line" smooth="yes"/>
      <point x="2440" y="247"/>
      <point x="2362" y="132"/>
      <point x="2261" y="132" type="qcurve" smooth="yes"/>
      <point x="2160" y="132"/>
      <point x="2082" y="247"/>
    </contour>
  </outline>
</glyph>
<glyph name="guilsinglleft" format="2">
  <advance width="718"/>
  <unicode hex="2039"/>
  <outline>
    <contour>
      <point x="462" y="202" type="line"/>
      <point x="654" y="202" type="line"/>
      <point x="312" y="602" type="line"/>
      <point x="654" y="1002" type="line"/>
      <point x="462" y="1002" type="line"/>
      <point x="72" y="612" type="line"/>
      <point x="72" y="592" type="line"/>
    </contour>
  </outline>
</glyph>
<glyph name="won" format="2">
  <advance width="1619"/>
  <unicode hex="20A9"/>
  <outline>
    <contour>
      <point x="376" y="-10" type="line"/>
      <point x="573" y="-10" type="line"/>
      <point x="760" y="488" type="line" smooth="yes"/>
      <point x="772" y="520"/>
      <point x="795" y="583"/>
      <point x="804" y="616" type="qcurve"/>
      <point x="808" y="616" type="line"/>
      <point x="817" y="583"/>
      <point x="840" y="520"/>
      <point x="852" y="488" type="qcurve" smooth="yes"/>
      <point x="1039" y="-10" type="line"/>
      <point x="1244" y="-10" type="line"/>
      <point x="1520" y="1456" type="line"/>
      <point x="1347" y="1456" type="line"/>
      <point x="1144" y="300" type="line" smooth="yes"/>
      <point x="1138" y="266"/>
      <point x="1130" y="205"/>
      <point x="1128" y="172" type="qcurve"/>
      <point x="1124" y="172" type="line"/>
      <point x="1117" y="205"/>
      <point x="1100" y="267"/>
      <point x="1087" y="300" type="qcurve" smooth="yes"/>
      <point x="916" y="756" type="line"/>
      <point x="709" y="756" type="line"/>
      <point x="538" y="300" type="line" smooth="yes"/>
      <point x="526" y="267"/>
      <point x="508" y="205"/>
      <point x="502" y="172" type="qcurve"/>
      <point x="498" y="172" type="line"/>
      <point x="496" y="205"/>
      <point x="488" y="266"/>
      <point x="482" y="300" type="qcurve" smooth="yes"/>
      <point x="278" y="1456" type="line"/>
      <point x="99" y="1456" type="line"/>
    </contour>
    <contour>
      <point x="32" y="840" type="line"/>
      <point x="1588" y="840" type="line"/>
      <point x="1588" y="999" type="line"/>
      <point x="32" y="999" type="line"/>
    </contour>
    <contour>
      <point x="20" y="1160" type="line"/>
      <point x="1599" y="1160" type="line"/>
      <point x="1599" y="1319" type="line"/>
      <point x="20" y="1319" type="line"/>
    </contour>
  </outline>
</glyph>
<glyph name="Euro" format="2">
  <advance width="1314"/>
  <unicode hex="20AC"/>
  <outline>
    <contour>
      <point x="188" y="642" type="line" smooth="yes"/>
      <point x="188" y="316"/>
      <point x="497" y="-30"/>
      <point x="772" y="-30" type="qcurve" smooth="yes"/>
      <point x="1024" y="-30"/>
      <point x="1284" y="220"/>
      <point x="1284" y="398" type="qcurve" smooth="yes"/>
      <point x="1284" y="408" type="line"/>
      <point x="1083" y="408" type="line"/>
      <point x="1083" y="398" type="line" smooth="yes"/>
      <point x="1083" y="289"/>
      <point x="942" y="139"/>
      <point x="772" y="139" type="qcurve" smooth="yes"/>
      <point x="580" y="139"/>
      <point x="388" y="379"/>
      <point x="388" y="642" type="qcurve" smooth="yes"/>
      <point x="388" y="814" type="line" smooth="yes"/>
      <point x="388" y="1077"/>
      <point x="580" y="1317"/>
      <point x="772" y="1317" type="qcurve" smooth="yes"/>
      <point x="942" y="1317"/>
      <point x="1083" y="1167"/>
      <point x="1083" y="1058" type="qcurve" smooth="yes"/>
      <point x="1083" y="1048" type="line"/>
      <point x="1284" y="1048" type="line"/>
      <point x="1284" y="1058" type="line" smooth="yes"/>
      <point x="1284" y="1236"/>
      <point x="1024" y="1486"/>
      <point x="772" y="1486" type="qcurve" smooth="yes"/>
      <point x="497" y="1486"/>
      <point x="188" y="1140"/>
      <point x="188" y="814" type="qcurve" smooth="yes"/>
    </contour>
    <contour>
      <point x="30" y="483" type="line"/>
      <point x="974" y="483" type="line"/>
      <point x="974" y="643" type="line"/>
      <point x="30" y="643" type="line"/>
    </contour>
    <contour>
      <point x="30" y="813" type="line"/>
      <point x="974" y="813" type="line"/>
      <point x="974" y="973" type="line"/>
      <point x="30" y="973" type="line"/>
    </contour>
  </outline>
</glyph>
<glyph name="trademark" format="2">
  <advance width="1756"/>
  <unicode hex="2122"/>
  <outline>
    <contour>
      <point x="276" y="820" type="line"/>
      <point x="440" y="820" type="line"/>
      <point x="440" y="1312" type="line"/>
      <point x="682" y="1312" type="line"/>
      <point x="682" y="1456" type="line"/>
      <point x="34" y="1456" type="line"/>
      <point x="34" y="1312" type="line"/>
      <point x="276" y="1312" type="line"/>
    </contour>
    <contour>
      <point x="760" y="820" type="line"/>
      <point x="896" y="820" type="line"/>
      <point x="896" y="1281" type="line"/>
      <point x="1126" y="820" type="line"/>
      <point x="1268" y="820" type="line"/>
      <point x="1500" y="1281" type="line"/>
      <point x="1500" y="820" type="line"/>
      <point x="1646" y="820" type="line"/>
      <point x="1646" y="1456" type="line"/>
      <point x="1443" y="1456" type="line"/>
      <point x="1204" y="972" type="line"/>
      <point x="964" y="1456" type="line"/>
      <point x="760" y="1456" type="line"/>
    </contour>
  </outline>
</glyph>
<glyph name="divisionslash" format="2">
  <advance width="838"/>
  <unicode hex="2215"/>
  <outline>
    <contour>
      <point x="-50" y="-125" type="line"/>
      <point x="134" y="-125" type="line"/>
      <point x="838" y="1456" type="line"/>
      <point x="652" y="1456" type="line"/>
    </contour>
  </outline>
</glyph>
<glyph name="fl" format="2">
  <advance width="1298"/>
  <unicode hex="FB02"/>
  <outline>
    <contour>
      <point x="218" y="0" type="line"/>
      <point x="412" y="0" type="line"/>
      <point x="412" y="968" type="line"/>
      <point x="412" y="990" type="line"/>
      <point x="412" y="1177" type="line" smooth="yes"/>
      <point x="412" y="1286"/>
      <point x="546" y="1396"/>
      <point x="681" y="1396" type="qcurve" smooth="yes"/>
      <point x="756" y="1396"/>
      <point x="902" y="1362"/>
      <point x="964" y="1340" type="qcurve"/>
      <point x="996" y="1496" type="line"/>
      <point x="921" y="1524"/>
      <point x="758" y="1556"/>
      <point x="678" y="1556" type="qcurve" smooth="yes"/>
      <point x="461" y="1556"/>
      <point x="218" y="1362"/>
      <point x="218" y="1176" type="qcurve" smooth="yes"/>
    </contour>
    <contour>
      <point x="25" y="904" type="line"/>
      <point x="748" y="904" type="line"/>
      <point x="748" y="1052" type="line"/>
      <point x="352" y="1052" type="line"/>
      <point x="300" y="1052" type="line"/>
      <point x="25" y="1052" type="line"/>
    </contour>
    <contour>
      <point x="947" y="0" type="line"/>
      <point x="1142" y="0" type="line"/>
      <point x="1142" y="1496" type="line"/>
      <point x="947" y="1496" type="line"/>
    </contour>
  </outline>
</glyph>
<glyph name="bitcoin" format="2">
  <advance width="1350"/>
  <outline>
    <contour>
      <point x="170" y="0" type="line"/>
      <point x="700" y="0" type="line" smooth="yes"/>
      <point x="949" y="0"/>
      <point x="1250" y="220"/>
      <point x="1250" y="420" type="qcurve" smooth="yes"/>
      <point x="1250" y="560"/>
      <point x="1093" y="732"/>
      <point x="969" y="764" type="qcurve"/>
      <point x="969" y="768" type="line"/>
      <point x="1070" y="800"/>
      <point x="1208" y="950"/>
      <point x="1208" y="1070" type="qcurve" smooth="yes"/>
      <point x="1208" y="1270"/>
      <point x="919" y="1456"/>
      <point x="666" y="1456" type="qcurve" smooth="yes"/>
      <point x="170" y="1456" type="line"/>
    </contour>
    <contour>
      <point x="368" y="162" type="line"/>
      <point x="368" y="678" type="line"/>
      <point x="700" y="678" type="line" smooth="yes"/>
      <point x="881" y="678"/>
      <point x="1050" y="540"/>
      <point x="1050" y="421" type="qcurve" smooth="yes"/>
      <point x="1050" y="302"/>
      <point x="881" y="162"/>
      <point x="700" y="162" type="qcurve" smooth="yes"/>
    </contour>
    <contour>
      <point x="368" y="838" type="line"/>
      <point x="368" y="1294" type="line"/>
      <point x="666" y="1294" type="line" smooth="yes"/>
      <point x="848" y="1294"/>
      <point x="1008" y="1177"/>
      <point x="1008" y="1069" type="qcurve" smooth="yes"/>
      <point x="1008" y="960"/>
      <point x="848" y="838"/>
      <point x="666" y="838" type="qcurve" smooth="yes"/>
    </contour>
    <contour>
      <point x="24" y="364" type="line"/>
      <point x="278" y="364" type="line"/>
      <point x="283" y="368" type="line"/>
      <point x="704" y="368" type="line"/>
      <point x="704" y="520" type="line"/>
      <point x="283" y="520" type="line"/>
      <point x="278" y="524" type="line"/>
      <point x="24" y="524" type="line"/>
    </contour>
  </outline>
</glyph>
<glyph name="four.pnum" format="2">
  <advance width="1235"/>
  <outline>
    <contour>
      <point x="806" y="0" type="line"/>
      <point x="997" y="0" type="line"/>
      <point x="997" y="1456" type="line"/>
      <point x="810" y="1456" type="line"/>
      <point x="20" y="474" type="line"/>
      <point x="20" y="341" type="line"/>
      <point x="1226" y="341" type="line"/>
      <point x="1226" y="504" type="line"/>
      <point x="928" y="504" type="line"/>
      <point x="841" y="504" type="line"/>
      <point x="260" y="504" type="line"/>
      <point x="794" y="1170" type="line"/>
      <point x="806" y="1170" type="line"/>
      <point x="806" y="450" type="line"/>
      <point x="806" y="398" type="line"/>
    </contour>
  </outline>
</glyph>
<glyph name="one.pnum" format="2">
  <advance width="1117"/>
  <outline>
    <contour>
      <point x="539" y="0" type="line"/>
      <point x="741" y="0" type="line"/>
      <point x="741" y="1476" type="line"/>
      <point x="697" y="1476" type="line"/>
      <point x="101" y="1276" type="line"/>
      <point x="101" y="1086" type="line"/>
      <point x="539" y="1248" type="line"/>
    </contour>
  </outline>
</glyph>
<glyph name="seven.pnum" format="2">
  <advance width="1182"/>
  <outline>
    <contour>
      <point x="281" y="0" type="line"/>
      <point x="490" y="0" type="line"/>
      <point x="1122" y="1345" type="line"/>
      <point x="1122" y="1456" type="line"/>
      <point x="46" y="1456" type="line"/>
      <point x="46" y="1292" type="line"/>
      <point x="908" y="1292" type="line"/>
    </contour>
  </outline>
</glyph>
<glyph name="three.pnum" format="2">
  <advance width="1254"/>
  <outline>
    <contour>
      <point x="56" y="382" type="line" smooth="yes"/>
      <point x="56" y="201"/>
      <point x="364" y="-30"/>
      <point x="604" y="-30" type="qcurve" smooth="yes"/>
      <point x="845" y="-30"/>
      <point x="1159" y="200"/>
      <point x="1159" y="402" type="qcurve" smooth="yes"/>
      <point x="1159" y="541"/>
      <point x="987" y="730"/>
      <point x="844" y="762" type="qcurve"/>
      <point x="844" y="766" type="line"/>
      <point x="976" y="816"/>
      <point x="1100" y="1000"/>
      <point x="1100" y="1099" type="qcurve" smooth="yes"/>
      <point x="1100" y="1269"/>
      <point x="823" y="1486"/>
      <point x="605" y="1486" type="qcurve" smooth="yes"/>
      <point x="386" y="1486"/>
      <point x="102" y="1259"/>
      <point x="102" y="1098" type="qcurve" smooth="yes"/>
      <point x="102" y="1088" type="line"/>
      <point x="298" y="1088" type="line"/>
      <point x="298" y="1098" type="line" smooth="yes"/>
      <point x="298" y="1206"/>
      <point x="471" y="1323"/>
      <point x="604" y="1323" type="qcurve" smooth="yes"/>
      <point x="739" y="1323"/>
      <point x="898" y="1207"/>
      <point x="898" y="1089" type="qcurve" smooth="yes"/>
      <point x="898" y="970"/>
      <point x="717" y="838"/>
      <point x="550" y="838" type="qcurve" smooth="yes"/>
      <point x="426" y="838" type="line"/>
      <point x="426" y="679" type="line"/>
      <point x="562" y="679" type="line" smooth="yes"/>
      <point x="742" y="679"/>
      <point x="955" y="540"/>
      <point x="955" y="402" type="qcurve" smooth="yes"/>
      <point x="955" y="264"/>
      <point x="764" y="133"/>
      <point x="604" y="133" type="qcurve" smooth="yes"/>
      <point x="446" y="133"/>
      <point x="253" y="263"/>
      <point x="253" y="382" type="qcurve" smooth="yes"/>
      <point x="253" y="392" type="line"/>
      <point x="56" y="392" type="line"/>
    </contour>
  </outline>
</glyph>
<glyph name="two.pnum" format="2">
  <advance width="1253"/>
  <outline>
    <contour>
      <point x="84" y="0" type="line"/>
      <point x="1182" y="0" type="line"/>
      <point x="1182" y="162" type="line"/>
      <point x="352" y="162" type="line"/>
      <point x="826" y="594" type="line" smooth="yes"/>
      <point x="961" y="716"/>
      <point x="1138" y="945"/>
      <point x="1138" y="1088" type="qcurve" smooth="yes"/>
      <point x="1138" y="1248"/>
      <point x="856" y="1486"/>
      <point x="627" y="1486" type="qcurve" smooth="yes"/>
      <point x="386" y="1486"/>
      <point x="82" y="1222"/>
      <point x="82" y="1028" type="qcurve" smooth="yes"/>
      <point x="82" y="1018" type="line"/>
      <point x="282" y="1018" type="line"/>
      <point x="282" y="1028" type="line" smooth="yes"/>
      <point x="282" y="1159"/>
      <point x="474" y="1322"/>
      <point x="627" y="1322" type="qcurve" smooth="yes"/>
      <point x="772" y="1322"/>
      <point x="938" y="1176"/>
      <point x="938" y="1078" type="qcurve" smooth="yes"/>
      <point x="938" y="982"/>
      <point x="803" y="807"/>
      <point x="699" y="710" type="qcurve" smooth="yes"/>
      <point x="84" y="146" type="line"/>
    </contour>
  </outline>
</glyph>
